<svg xmlns:xlink="http://www.w3.org/1999/xlink" xmlns="http://www.w3.org/2000/svg"   fill="none" viewBox="0 0 24 24" width="48"  height="48" ><title>Location marker</title><path fill="currentColor" fill-rule="evenodd" d="M12 1c2.4 0 4.9.9 6.7 2.8 3.7 3.7 3.7 9.8 0 13.4L12 24l-6.7-6.7c-3.7-3.7-3.7-9.8 0-13.5C7.1 1.9 9.6 1 12 1Zm0 18.8 4.6-4.6c2.5-2.6 2.5-6.7 0-9.3C15.4 4.7 13.7 4 12 4c-1.7 0-3.4.7-4.6 1.9-2.5 2.6-2.5 6.7 0 9.3l4.6 4.6Zm2-9.3a2 2 0 1 1-4 0 2 2 0 0 1 4 0Z" clip-rule="evenodd"></path></svg>