<svg width="160" height="25" viewBox="0 0 160 25" fill="none" xmlns="http://www.w3.org/2000/svg">
<g clip-path="url(#clip0_1_5)">
<rect width="160" height="25" fill="white"/>
<path d="M3.69252 15.1681V0H0V15.3444C0 16.0694 0.0584348 16.7722 0.175304 17.4514C0.293565 18.1069 0.46887 18.7264 0.704 19.3125C0.937739 19.8958 1.21878 20.4472 1.54713 20.9625C1.87548 21.4764 2.25113 21.9458 2.67409 22.3653C3.09224 22.7849 3.55133 23.1618 4.04452 23.4903C4.5607 23.8181 5.10052 24.0986 5.66261 24.3333C6.22609 24.5431 6.81183 24.7083 7.42122 24.825C8.05426 24.9417 8.69983 25 9.35513 25C10.6212 25 11.8177 24.7431 12.9447 24.2278C14.0417 23.7328 15.0235 23.0153 15.8275 22.1208V24.5792H19.5214V0H15.8275V15.1681C15.8275 17.1347 15.2292 18.7153 14.0341 19.9083C12.8612 21.1028 11.4323 21.7 9.7433 21.7C8.032 21.7 6.58922 21.1028 5.41635 19.9083C4.26713 18.7139 3.69252 17.1347 3.69252 15.1681ZM22.2386 24.5792H25.7558V22.3319C26.5709 23.163 27.5382 23.8302 28.6052 24.2972C29.7308 24.7653 30.9148 25 32.1572 25C32.7443 25 33.3064 24.9417 33.8463 24.825C34.397 24.7341 34.9382 24.5928 35.463 24.4028C35.972 24.2189 36.466 23.996 36.9405 23.7361C37.3968 23.4648 37.8321 23.1598 38.2428 22.8236C39.0556 22.1377 39.7453 21.3186 40.2824 20.4014C40.5635 19.9319 40.7972 19.4403 40.9864 18.925C41.1965 18.4111 41.3496 17.8833 41.4442 17.3458C41.6308 16.2299 41.6308 15.0909 41.4442 13.975C41.3553 13.4317 41.2011 12.901 40.985 12.3944C40.7987 11.8814 40.5634 11.3875 40.2824 10.9194C40.0266 10.4543 39.72 10.0188 39.3683 9.62083C39.0411 9.20086 38.6625 8.8234 38.2414 8.49722C37.8428 8.14616 37.4065 7.84013 36.9405 7.58472C36.4722 7.30377 35.9778 7.06843 35.4643 6.88194C34.9391 6.69234 34.3974 6.55147 33.8463 6.46111C33.2912 6.34209 32.7249 6.28295 32.1572 6.28472C30.9148 6.28472 29.7419 6.53056 28.64 7.02222C27.5381 7.49028 26.5878 8.13333 25.7906 8.95278V0H22.2386V24.5792ZM25.721 15.6597C25.721 15.2153 25.7558 14.7944 25.8268 14.3958C25.9202 13.9988 26.0496 13.6111 26.2136 13.2375C26.3726 12.8718 26.5606 12.5193 26.7757 12.1833C27.0108 11.8333 27.2682 11.5167 27.5492 11.2361C27.8317 10.9556 28.1363 10.7083 28.4647 10.4986C28.793 10.2639 29.1325 10.0778 29.4845 9.93611C29.8602 9.77361 30.247 9.65556 30.6449 9.58611C31.0605 9.49321 31.4851 9.44617 31.911 9.44583C32.3325 9.44583 32.743 9.49167 33.1423 9.58472C33.5416 9.65556 33.9283 9.77361 34.3026 9.93611C34.6783 10.0778 35.0303 10.2639 35.3586 10.4986C35.687 10.7097 35.9791 10.9556 36.2379 11.2347C36.519 11.5167 36.7666 11.8319 36.9753 12.1833C37.2118 12.5111 37.4108 12.8639 37.5736 13.2375C37.7391 13.6125 37.856 13.9986 37.9256 14.3958C38.1113 15.2282 38.1113 16.0912 37.9256 16.9236C37.856 17.3222 37.7391 17.7083 37.575 18.0833C37.4108 18.4583 37.2104 18.8083 36.9767 19.1361C36.7639 19.4658 36.5162 19.7717 36.2379 20.0486C35.9726 20.3363 35.6779 20.5956 35.3586 20.8222C35.0221 21.0369 34.669 21.2245 34.3026 21.3833C33.927 21.5472 33.5416 21.675 33.1423 21.7694C32.7357 21.8404 32.3237 21.8757 31.911 21.875C31.4867 21.8747 31.0633 21.8394 30.6449 21.7694C30.2472 21.676 29.8588 21.5467 29.4845 21.3833C29.1182 21.2245 28.7651 21.0369 28.4285 20.8222C27.7768 20.3568 27.2065 19.7871 26.7409 19.1361C26.5255 18.8006 26.337 18.4486 26.1774 18.0833C26.0359 17.7046 25.9188 17.3172 25.8268 16.9236C25.7566 16.506 25.7213 16.0832 25.721 15.6597ZM42.8118 15.625C42.8118 16.2097 42.8591 16.7833 42.9523 17.3458C43.0456 17.9069 43.1875 18.4458 43.3739 18.9611C43.5854 19.475 43.8191 19.9667 44.0779 20.4361C44.359 20.8806 44.6637 21.3125 44.992 21.7347C45.344 22.1319 45.7308 22.5069 46.1537 22.8583C46.5753 23.1861 47.0205 23.4792 47.4894 23.7361C47.9583 23.9931 48.4508 24.2153 48.967 24.4028C49.4817 24.5903 50.023 24.7306 50.585 24.825C51.1666 24.9177 51.7547 24.9642 52.3437 24.9639C53.9617 24.9639 55.4268 24.625 56.7402 23.9458C58.0584 23.2828 59.2029 22.3211 60.0821 21.1375L57.5137 19.2417C56.8584 20.1306 56.0835 20.7972 55.193 21.2417C54.3045 21.6682 53.3295 21.8849 52.3437 21.875C50.8438 21.875 49.5304 21.3958 48.4049 20.4347C47.3252 19.4924 46.6149 18.1988 46.4 16.7833H60.9948V15.625C60.9948 15.0403 60.9475 14.4667 60.8557 13.9042C60.7647 13.3539 60.6231 12.8132 60.4327 12.2889C60.2746 11.7878 60.0623 11.3053 59.7997 10.85C59.5682 10.3863 59.2849 9.95015 58.9551 9.55C58.6275 9.15322 58.2622 8.78902 57.8643 8.4625C57.4903 8.11185 57.0772 7.80521 56.633 7.54861C56.188 7.28026 55.7173 7.05693 55.2278 6.88194C54.7264 6.69244 54.2078 6.55152 53.6793 6.46111C53.1337 6.36498 52.5805 6.31803 52.0264 6.32083C51.4393 6.32083 50.8647 6.37917 50.3012 6.49583C49.7625 6.58928 49.2331 6.73011 48.7193 6.91667C48.2268 7.10417 47.7454 7.33889 47.2779 7.61944C46.8264 7.8806 46.4022 8.18629 46.0118 8.53194C45.6125 8.88339 45.2473 9.27169 44.921 9.69167C44.5881 10.0963 44.2938 10.5311 44.0417 10.9903C43.783 11.4347 43.5603 11.9153 43.3739 12.4292C43.1836 12.9297 43.042 13.4474 42.951 13.975C42.8567 14.5199 42.811 15.072 42.8118 15.625ZM51.9569 9.40972C53.2326 9.39659 54.4699 9.84563 55.4393 10.6736C56.448 11.5167 57.1047 12.6181 57.4094 13.975H46.4696C46.7757 12.6167 47.431 11.5167 48.4397 10.6736C49.4241 9.84803 50.6712 9.3999 51.9569 9.40972ZM71.9402 9.83194V6.53056H70.7089C69.7238 6.53056 68.8682 6.74167 68.1419 7.1625C67.4352 7.58703 66.8434 8.17784 66.4181 8.88333V6.67083H62.9009V24.5778H66.4529V14.3972C66.4529 13.0153 66.8285 11.9153 67.5798 11.0958C67.94 10.6893 68.3843 10.3658 68.8821 10.1476C69.3798 9.92936 69.9191 9.82166 70.4626 9.83194H71.9402Z" fill="black"/>
<path d="M3.7194 15.2785V7.85931e-06H0V15.4561C0 16.1864 0.0588601 16.8943 0.17658 17.5784C0.295702 18.2387 0.472282 18.8627 0.709124 19.4531C0.944565 20.0407 1.22765 20.5961 1.55839 21.1151C1.88913 21.6327 2.26752 22.1056 2.69355 22.5281C3.11475 22.9507 3.57718 23.3304 4.07396 23.6613C4.59389 23.9914 5.13765 24.274 5.70383 24.5105C6.2714 24.7217 6.86141 24.8882 7.47523 25.0057C8.11289 25.1232 8.76315 25.182 9.42322 25.182C10.6985 25.182 11.9038 24.9232 13.0389 24.4041C14.1439 23.9056 15.1328 23.1828 15.9427 22.2819V24.7581H19.6635V7.85931e-06H15.9427V15.2785C15.9427 17.2594 15.3401 18.8515 14.1362 20.0532C12.9548 21.2564 11.5156 21.858 9.81422 21.858C8.09046 21.858 6.63718 21.2564 5.45577 20.0532C4.29819 18.8501 3.7194 17.2594 3.7194 15.2785ZM22.4005 24.7581H25.9433V22.4945C26.7643 23.3316 27.7386 24.0036 28.8134 24.4741C29.9472 24.9455 31.1398 25.182 32.3913 25.182C32.9827 25.182 33.5489 25.1232 34.0926 25.0057C34.6474 24.9142 35.1925 24.7718 35.7211 24.5804C36.2338 24.3952 36.7314 24.1707 37.2094 23.9089C37.669 23.6356 38.1075 23.3284 38.5211 22.9897C39.3398 22.2989 40.0346 21.4738 40.5756 20.5499C40.8587 20.077 41.0942 19.5818 41.2848 19.0628C41.4964 18.5451 41.6505 18.0135 41.7458 17.4721C41.9338 16.3481 41.9338 15.2007 41.7458 14.0767C41.6563 13.5294 41.501 12.9949 41.2834 12.4847C41.0957 11.9679 40.8587 11.4704 40.5756 10.9989C40.3179 10.5304 40.0091 10.0917 39.6549 9.69087C39.3253 9.26784 38.9439 8.88763 38.5197 8.55908C38.1182 8.20546 37.6788 7.89721 37.2094 7.63994C36.7376 7.35694 36.2397 7.11988 35.7225 6.93204C35.1934 6.74106 34.6478 6.59916 34.0926 6.50815C33.5335 6.38826 32.9631 6.32869 32.3913 6.33047C31.1398 6.33047 29.9584 6.5781 28.8485 7.07334C27.7385 7.54481 26.7814 8.19254 25.9783 9.01795V7.85931e-06H22.4005V24.7581ZM25.9083 15.7737C25.9083 15.326 25.9433 14.9021 26.0148 14.5006C26.1088 14.1007 26.2392 13.7101 26.4044 13.3339C26.5646 12.9655 26.7539 12.6104 26.9705 12.272C27.2074 11.9195 27.4667 11.6005 27.7497 11.3179C28.0342 11.0353 28.3411 10.7863 28.6719 10.575C29.0026 10.3386 29.3446 10.1511 29.6991 10.0084C30.0775 9.84476 30.4671 9.72584 30.8679 9.65589C31.2866 9.56232 31.7142 9.51494 32.1432 9.51459C32.5679 9.51459 32.9813 9.56076 33.3835 9.65449C33.7857 9.72584 34.1753 9.84476 34.5523 10.0084C34.9307 10.1511 35.2852 10.3386 35.616 10.575C35.9467 10.7877 36.241 11.0353 36.5017 11.3165C36.7848 11.6005 37.0342 11.9181 37.2444 12.272C37.4827 12.6022 37.6831 12.9575 37.8471 13.3339C38.0138 13.7116 38.1315 14.1005 38.2016 14.5006C38.3887 15.3391 38.3887 16.2084 38.2016 17.0468C38.1315 17.4483 38.0138 17.8372 37.8485 18.215C37.6831 18.5927 37.4813 18.9452 37.2458 19.2754C37.0314 19.6075 36.782 19.9156 36.5017 20.1945C36.2344 20.4844 35.9376 20.7455 35.616 20.9738C35.277 21.19 34.9213 21.379 34.5523 21.539C34.1739 21.7041 33.7857 21.8328 33.3835 21.9279C32.974 21.9994 32.559 22.0349 32.1432 22.0342C31.7159 22.0339 31.2894 21.9984 30.8679 21.9279C30.4674 21.8338 30.0762 21.7036 29.6991 21.539C29.3301 21.379 28.9744 21.19 28.6354 20.9738C27.979 20.505 27.4046 19.9311 26.9355 19.2754C26.7185 18.9375 26.5287 18.5829 26.3679 18.215C26.2254 17.8335 26.1074 17.4433 26.0148 17.0468C25.9441 16.6261 25.9085 16.2003 25.9083 15.7737ZM43.1234 15.7387C43.1234 16.3277 43.1711 16.9055 43.265 17.4721C43.3589 18.0373 43.5018 18.5801 43.6896 19.0991C43.9026 19.6168 44.1381 20.112 44.3987 20.5849C44.6818 21.0325 44.9887 21.4676 45.3195 21.8929C45.674 22.293 46.0636 22.6708 46.4897 23.0247C46.9143 23.3549 47.3628 23.6501 47.8351 23.9089C48.3073 24.1677 48.8034 24.3915 49.3234 24.5804C49.8419 24.7693 50.3871 24.9106 50.9532 25.0057C51.5391 25.0991 52.1314 25.1459 52.7246 25.1456C54.3545 25.1456 55.8302 24.8042 57.1532 24.1201C58.481 23.4523 59.6338 22.4835 60.5194 21.2914L57.9324 19.3817C57.2723 20.2771 56.4917 20.9486 55.5948 21.3963C54.6998 21.8259 53.7177 22.0442 52.7246 22.0342C51.2139 22.0342 49.891 21.5516 48.7572 20.5835C47.6697 19.6343 46.9542 18.3312 46.7377 16.9055H61.4387V15.7387C61.4387 15.1498 61.3911 14.572 61.2986 14.0054C61.207 13.4511 61.0643 12.9065 60.8726 12.3783C60.7133 11.8736 60.4995 11.3876 60.2349 10.929C60.0017 10.4619 59.7164 10.0226 59.3842 9.61952C59.0543 9.21985 58.6863 8.853 58.2855 8.5241C57.9087 8.1709 57.4926 7.86203 57.0453 7.60356C56.597 7.33326 56.1228 7.1083 55.6298 6.93204C55.1247 6.74116 54.6024 6.59921 54.07 6.50815C53.5204 6.41132 52.9632 6.36403 52.4051 6.36685C51.8137 6.36685 51.2349 6.42561 50.6673 6.54312C50.1247 6.63725 49.5915 6.7791 49.0739 6.96702C48.5778 7.15588 48.0929 7.39231 47.622 7.67491C47.1672 7.93796 46.74 8.24589 46.3467 8.59405C45.9445 8.94806 45.5766 9.33918 45.248 9.76222C44.9127 10.1698 44.6162 10.6077 44.3623 11.0703C44.1016 11.518 43.8774 12.002 43.6896 12.5196C43.4979 13.0238 43.3552 13.5453 43.2636 14.0767C43.1686 14.6256 43.1227 15.1817 43.1234 15.7387ZM52.335 9.47822C53.6201 9.46499 54.8664 9.9173 55.8428 10.7513C56.8589 11.6005 57.5203 12.7099 57.8273 14.0767H46.8078C47.1161 12.7085 47.7762 11.6005 48.7922 10.7513C49.7838 9.91972 51.04 9.46833 52.335 9.47822ZM72.4638 9.90352V6.5781H71.2235C70.2313 6.5781 69.3694 6.79075 68.6379 7.21464C67.926 7.64226 67.3299 8.23738 66.9015 8.948V6.7194H63.3587V24.7567H66.9366V14.502C66.9366 13.11 67.3149 12.002 68.0717 11.1766C68.4345 10.7672 68.8821 10.4413 69.3834 10.2214C69.8848 10.0016 70.428 9.89316 70.9755 9.90352H72.4638ZM101.849 12.4147C101.849 11.7292 101.79 11.0577 101.672 10.3988C101.58 9.7485 101.426 9.10856 101.211 8.48773C101 7.87807 100.74 7.28666 100.432 6.7194C100.158 6.14476 99.8253 5.59959 99.44 5.09236C98.6891 4.06176 97.7806 3.15534 96.7478 2.40628C96.2329 2.03131 95.6877 1.69955 95.1179 1.4144C94.5392 1.10295 93.9343 0.84267 93.3101 0.636552C92.6887 0.422408 92.0481 0.268279 91.3971 0.176282C90.731 0.0582045 90.0557 -0.000783607 89.3791 7.85931e-06H80.5543V24.7581H89.3763C90.063 24.7581 90.7357 24.7105 91.3957 24.6168C92.0572 24.4979 92.6949 24.3454 93.3101 24.1551C93.929 23.9509 94.5327 23.7031 95.1165 23.4136C95.6827 23.1059 96.2265 22.7659 96.7464 22.3882C97.262 22.014 97.7475 21.6 98.1983 21.1501C98.6467 20.7024 99.0602 20.2309 99.4386 19.7357C99.8169 19.2166 100.148 18.6738 100.431 18.1086C100.738 17.5414 100.999 16.95 101.21 16.3403C101.424 15.7199 101.579 15.0805 101.671 14.4307C101.789 13.7703 101.849 13.0974 101.849 12.4147ZM89.4141 1.52072C90.0041 1.52072 90.5829 1.56828 91.1491 1.66202C92.2663 1.84702 93.3444 2.21776 94.3387 2.75883C94.8349 3.01765 95.3057 3.31284 95.7556 3.643C96.2041 3.97316 96.6175 4.3383 96.9959 4.73981C97.3967 5.11754 97.7624 5.54144 98.0946 6.0129C98.4239 6.46058 98.7084 6.93204 98.9438 7.42729C99.2045 7.92253 99.4161 8.44156 99.5815 8.98298C99.9586 10.0879 100.15 11.2475 100.148 12.4147C100.158 13.5822 99.9669 14.7428 99.5815 15.8451C99.4161 16.3865 99.2031 16.9055 98.9438 17.4007C98.7084 17.896 98.4253 18.3675 98.0946 18.8151C97.1068 20.1614 95.8216 21.2625 94.3387 22.0328C93.8511 22.3001 93.3415 22.5252 92.8154 22.7057C92.2691 22.8717 91.7125 23.0016 91.1491 23.0947C90.5757 23.1899 89.9954 23.2376 89.4141 23.2374H82.257V1.52072H89.4141ZM105.013 3.57165C105.18 3.57051 105.344 3.53542 105.497 3.46854C105.649 3.40166 105.786 3.3044 105.899 3.18273C106.023 3.06417 106.122 2.92146 106.189 2.76339C106.256 2.60531 106.29 2.43522 106.289 2.26359C106.292 2.09678 106.259 1.93124 106.192 1.77852C106.125 1.6258 106.025 1.48959 105.899 1.37942C105.786 1.25775 105.649 1.16049 105.497 1.09361C105.344 1.02673 105.18 0.991639 105.013 0.990499C104.847 0.991448 104.682 1.02644 104.53 1.09333C104.377 1.16022 104.24 1.25758 104.126 1.37942C104.001 1.48959 103.901 1.6258 103.834 1.77852C103.766 1.93124 103.733 2.09678 103.737 2.26359C103.737 2.61753 103.867 2.92391 104.126 3.18273C104.24 3.30457 104.377 3.40193 104.53 3.46882C104.682 3.5357 104.847 3.5707 105.013 3.57165ZM105.793 7.25102H104.163V24.7581H105.793V7.24822V7.25102ZM115.968 8.6654V7.10972H114.728C113.761 7.10972 112.898 7.35734 112.143 7.85119C111.419 8.335 110.843 9.00762 110.476 9.79579V7.24962H108.846V24.7581H110.476V13.6878C110.476 12.3196 110.866 11.1416 111.646 10.1511C112.426 9.16065 113.477 8.6654 114.8 8.6654H115.968ZM115.626 15.9864C115.626 16.5516 115.674 17.0944 115.768 17.6134C115.862 18.131 115.992 18.6389 116.158 19.1341C116.705 20.5918 117.606 21.8918 118.778 22.9184C119.584 23.5821 120.494 24.1078 121.472 24.4741C121.968 24.6629 122.475 24.8042 122.995 24.8994C123.539 24.9931 124.094 25.0393 124.662 25.0393C126.115 25.0535 127.55 24.714 128.842 24.0502C130.095 23.4059 131.176 22.472 131.995 21.3263L130.683 20.4422C130.007 21.3983 129.108 22.1753 128.063 22.7057C127.018 23.2673 125.848 23.5592 124.662 23.5549C124.165 23.5549 123.681 23.5074 123.208 23.4136C122.762 23.3199 122.323 23.1898 121.898 23.0247C121.468 22.8334 121.053 22.6089 120.658 22.3532C120.283 22.0964 119.927 21.8126 119.594 21.504C119.262 21.1722 118.955 20.8174 118.673 20.4422C118.409 20.058 118.172 19.656 117.964 19.239C117.77 18.8023 117.605 18.3537 117.468 17.896C117.35 17.4206 117.279 16.9346 117.256 16.4452H132.916V15.6324C132.916 15.1148 132.868 14.6069 132.774 14.1117C132.684 13.607 132.553 13.1103 132.385 12.626C132.223 12.162 132.021 11.7127 131.782 11.2829C131.552 10.8443 131.279 10.4296 130.967 10.0448C130.66 9.66854 130.316 9.32489 129.939 9.01935C129.586 8.68971 129.193 8.40453 128.771 8.17016C128.361 7.90671 127.921 7.69302 127.46 7.53361C127.004 7.34239 126.528 7.19983 126.042 7.10832C125.54 7.01395 125.03 6.96711 124.519 6.96842C123.441 6.95761 122.372 7.14935 121.365 7.53361C120.889 7.72392 120.427 7.94835 119.984 8.20513C119.55 8.47052 119.136 8.76597 118.745 9.0893C118.366 9.41946 118.012 9.7846 117.681 10.1861C117.036 10.9846 116.522 11.8798 116.158 12.8386C115.992 13.3101 115.863 13.8179 115.768 14.3593C115.672 14.8964 115.625 15.4409 115.626 15.9864ZM124.519 8.41778C126.242 8.41778 127.742 9.05432 129.019 10.3274C130.318 11.5767 131.051 13.1212 131.215 14.9609H117.326C117.536 13.1742 118.393 11.5259 119.737 10.3274C121.106 9.05432 122.701 8.41778 124.519 8.41778ZM136.127 15.9864C136.127 15.5149 136.162 15.0546 136.233 14.6069C136.327 14.1593 136.445 13.734 136.586 13.3339C136.725 12.9167 136.903 12.5138 137.119 12.1307C137.354 11.753 137.602 11.4004 137.862 11.0703C138.408 10.4286 139.054 9.87913 139.776 9.44325C140.153 9.2306 140.543 9.05432 140.945 8.91163C141.346 8.74794 141.759 8.62903 142.185 8.55908C142.633 8.46395 143.082 8.41778 143.53 8.41778C144.736 8.41778 145.869 8.71157 146.932 9.30195C147.968 9.84505 148.866 10.6197 149.554 11.5655L150.864 10.6814C150.05 9.53998 148.967 8.61645 147.711 7.99248C146.426 7.30619 144.988 6.95356 143.53 6.96702C142.964 6.96702 142.409 7.01458 141.865 7.10832C141.346 7.20294 140.836 7.34531 140.342 7.53361C139.365 7.90025 138.455 8.42593 137.65 9.0893C137.272 9.41946 136.917 9.7846 136.586 10.1861C136.256 10.5638 135.961 10.9751 135.701 11.4242C135.441 11.8719 135.217 12.3434 135.028 12.8372C134.862 13.3347 134.732 13.8434 134.638 14.3593C134.542 14.8963 134.494 15.4409 134.497 15.9864C134.497 16.5516 134.543 17.0944 134.637 17.6134C134.732 18.131 134.861 18.6389 135.028 19.1341C135.575 20.5921 136.476 21.8922 137.649 22.9184C138.454 23.582 139.364 24.1076 140.342 24.4741C140.838 24.6629 141.346 24.8042 141.865 24.8994C142.409 24.9931 142.964 25.0393 143.53 25.0393C144.984 25.0535 146.419 24.7141 147.711 24.0502C148.964 23.4059 150.045 22.472 150.864 21.3263L149.554 20.4422C148.866 21.388 147.968 22.1626 146.932 22.7057C145.887 23.2674 144.717 23.5593 143.53 23.5549C143.082 23.5549 142.633 23.52 142.185 23.4486C141.765 23.3559 141.351 23.2377 140.945 23.0947C140.544 22.9303 140.154 22.7416 139.776 22.5295C139.413 22.3112 139.069 22.0627 138.747 21.7866C138.434 21.4977 138.139 21.1908 137.862 20.8675C137.595 20.5271 137.347 20.1726 137.119 19.8056C136.908 19.4328 136.73 19.0424 136.586 18.6389C136.447 18.2208 136.329 17.7959 136.233 17.3658C136.162 16.9095 136.126 16.4482 136.127 15.9864ZM157.379 24.7581H160V23.2723H157.591C157.001 23.2723 156.54 23.1185 156.209 22.8121C155.878 22.5057 155.713 22.093 155.713 21.574V8.73535H160V7.25102H155.713V1.90964H154.083V7.25102H150.825V8.73535H154.083V21.7516C154.083 22.6708 154.379 23.4024 154.969 23.9439C155.56 24.4867 156.363 24.7581 157.379 24.7581Z" fill="black"/>
</g>
<defs>
<clipPath id="clip0_1_5">
<rect width="160" height="25" fill="white"/>
</clipPath>
</defs>
</svg>
